<?xml version="1.0" encoding="UTF-8"?><!DOCTYPE svg PUBLIC "-//W3C//DTD SVG 1.1//EN" "http://www.w3.org/Graphics/SVG/1.1/DTD/svg11.dtd"><svg xmlns="http://www.w3.org/2000/svg" xmlns:xlink="http://www.w3.org/1999/xlink"><defs>
        <clipPath id="a">
            <path d="M0 0h14v14.261H0z"/>
        </clipPath>
    </defs><symbol id="icon-arrow-left" viewBox="0 0 96 96">
    <path d="M84 44H21.656l21.456-21.456a4.001 4.001 0 0 0-5.657-5.657L9.172 45.171a3.996 3.996 0 0 0-.498.61c-.067.101-.114.21-.171.315-.067.124-.142.242-.196.373-.056.135-.088.276-.129.416-.032.111-.075.217-.098.331A3.98 3.98 0 0 0 8 48l.001.008c0 .259.027.519.078.774.024.121.069.232.104.349.039.133.07.268.123.397.058.139.136.265.208.396.054.098.096.198.159.292.147.221.314.427.501.614l28.282 28.281a4.001 4.001 0 0 0 5.657-5.657L21.657 52H84a4 4 0 0 0 0-8z"/>
</symbol><symbol id="icon-arrow-right" viewBox="0 0 96 96">
    <path d="M12 52h62.344L52.888 73.456a4 4 0 1 0 5.657 5.656l28.283-28.284c.186-.186.352-.391.498-.609.067-.101.114-.21.172-.315.066-.124.142-.242.195-.373.057-.135.089-.275.129-.415.033-.111.076-.217.099-.331.052-.26.079-.522.079-.785l-.001-.009a4.032 4.032 0 0 0-.078-.774c-.024-.12-.069-.231-.104-.349-.039-.133-.069-.268-.123-.397-.058-.139-.136-.265-.208-.396-.054-.098-.097-.198-.159-.292a3.94 3.94 0 0 0-.501-.614L58.544 16.888a4.001 4.001 0 0 0-5.657 5.657L74.343 44H12a4 4 0 0 0 0 8z"/>
</symbol><symbol id="icon-behance" viewBox="0 0 11 8">
    <path d="M4.405 3.677s.911-.067.911-1.136S4.571.95 3.626.95H.52v5.972h3.108s1.896.06 1.896-1.763c0 0 .083-1.483-1.118-1.483zM1.888 2.012h1.738s.423 0 .423.622c0 .62-.249.71-.53.71H1.887V2.013zm1.658 3.85H1.888V4.264h1.738s.63-.008.63.82c0 .691-.46.77-.71.776z"/>
    <path d="M9.233 1.302H6.769v.736h2.464v-.736z"/>
    <path d="M8.053 2.47c-2.296 0-2.294 2.295-2.294 2.295S5.6 7.048 8.053 7.048c0 0 2.044.116 2.044-1.589H9.046s.035.643-.957.643c0 0-1.051.07-1.051-1.04h3.094S10.47 2.47 8.053 2.47zm.935 1.795H7.026s.128-.92 1.05-.92c.923 0 .912.92.912.92z"/>
</symbol><symbol id="icon-cafe" viewBox="0 0 34 34">
    <path d="M8.1 27.7H3.3c-.3 0-.4.2-.4.4v3.4c0 .4.1.5.4.5h4.8c.3 0 .4-.2.4-.4v-3.4c0-.3-.1-.5-.4-.5zm-.4 3.4h-4v-2.6h3.9v2.6z"/>
    <path d="M14.5 27.7H9.8c-.3 0-.4.2-.4.4v3.4c0 .3.2.4.4.4h4.8c.3 0 .4-.2.4-.4v-3.4c0-.2-.2-.4-.5-.4zm-.4 3.4h-3.9v-2.6h3.9v2.6z"/>
    <path d="M20.9 27.7h-4.8c-.3 0-.4.2-.4.4v3.4c0 .3.2.4.4.4h4.8c.3 0 .4-.2.4-.4v-3.4c.1-.2-.1-.4-.4-.4zm-.4 3.4h-3.9v-2.6h3.9v2.6z"/>
    <path d="M32.3 2.8V.4c0-.3-.2-.4-.4-.4H1.3C1 0 .8.2.8.4v2.4L0 11.2c0 .1 0 .3.1.4.1.1.2.1.3.1h.4v22c0 .3.2.4.4.4h30.6c.3 0 .4-.2.4-.4V11.6h.4c.1 0 .3 0 .3-.1s.1-.2.1-.4l-.7-8.3c0 .1 0 .1 0 0zM.9 10.7l.7-7.4h29.8l.7 7.4H.9zM1.7.9h29.7v1.5H1.7V.9zm20.8 10.7v14h-5.1v-1.9h2.2c.3 0 .4-.2.4-.4s-.2-.4-.4-.4h-5.4c-.3 0-.4.2-.4.4s.2.4.4.4h2.2v1.9H7.5v-1.9h2.2c.3 0 .4-.2.4-.4s-.2-.4-.4-.4H4.4c-.3 0-.4.2-.4.4s.2.4.4.4h2.2v1.9H1.7v-14h20.8zM1.7 26.5h20.8v6.7H1.7v-6.7zm29.7 6.7h-8V11.6h8v21.6z"/>
    <path d="M25.2 23.7c.3 0 .5-.2.5-.5s-.2-.5-.5-.5-.5.2-.5.5.2.5.5.5z"/>
</symbol><symbol id="icon-chair" viewBox="0 0 28 37">
    <path d="M26.665 15.882c-1.267-.706-3.58-.256-5.621.142-.572.112-1.112.217-1.583.287-.282.041-.467-.036-.605-.253-.64-1.011.06-4.462 1.887-7.23 2.271-3.441 2.777-4.972 1.09-6.71-1.244-1.284-3.49-.828-6.333-.251-.928.188-1.887.383-2.905.54-3.794.58-7.424-1.109-7.711-1.247a1.87 1.87 0 0 0-.86-.485C3.39.512 2.815.703 2.36 1.223.59 3.24.636 10.07 1.365 15.79 2.45 24.322 7.39 29.373 13.97 29.808v3.56c-4.23-1.028-4.22-1.03-4.273-1.03-.26 0-.418.212-.418.473 0 .236.198.431.423.466.154.032 1.384.323 3.02.715-1.982.565-3.795 1.085-4.512 1.289a.473.473 0 1 0 .262.908c1.407-.402 3.86-1.101 6.131-1.747a7154.3 7154.3 0 0 1 7.049 1.7.471.471 0 0 0 .567-.349.473.473 0 0 0-.347-.57l-5.418-1.307a324.65 324.65 0 0 1 3.404-.956c.25-.054.413-.301.363-.555-.051-.255-.405-.424-.658-.37-.122.025-2.303.607-4.653 1.28v-3.473h.163c.16 0 .374-.001.537-.006 8.86-.239 10.832-6.208 10.851-6.268.01-.031.025-.063.026-.094.322-.693 2.777-6.142.178-7.592zM12.701 3.106a59.967 59.967 0 0 0 2.938-.545c2.632-.534 4.712-.956 5.688.05 1.233 1.27 1.228 2.189-1.172 5.825-1.892 2.867-2.777 6.606-1.894 8.002.286.452.748.655 1.303.574a37.648 37.648 0 0 0 1.614-.293c1.828-.356 4.102-.8 5.145-.218 1.735.968.317 5.001-.438 6.618-1.553-.171-7.931-.335-10.971-.405-.617-.74-1.164-1.608-1.737-2.523-.487-.776-.99-1.579-1.567-2.347-.922-1.225-1.817-1.82-2.736-1.82-1.115 0-1.94.891-2.543 1.542-.107.116-.208.225-.303.32-.166.168-.331.249-.502.249-.395 0-.792-.43-.889-.56-1.43-2.632-1.321-6.332-.615-7.826.503-1.063 2.114-5.261 1.445-7.573 1.406.539 4.234 1.389 7.234.93zm12.355 20.54c-.954.505-2.737 1.09-5.5 1.09h-.064c-1.721 0-2.92-.538-3.9-1.459 3.251.08 7.596.262 9.464.37zm-9.413 5.482c-.156.005-.311.007-.465.007-9.83 0-12.37-8.416-13.01-13.433-.877-6.887-.588-12.518.72-14.01.215-.246.446-.364.706-.364.081 0 .168.01.256.034.381.097.652.328.83.707.832 1.779-.658 6.029-1.295 7.376-.755 1.596-.964 5.53.656 8.505.065.091.659.893 1.485.893.362 0 .7-.154 1.001-.457.1-.1.207-.216.32-.338.543-.587 1.22-1.316 2.027-1.316.674 0 1.405.518 2.174 1.539.56.744 1.055 1.544 1.533 2.307 1.64 2.618 3.19 5.102 6.911 5.102h.07c2.807 0 4.66-.687 5.718-1.228-.995 1.626-3.61 4.513-9.637 4.676z"/>
</symbol><symbol id="icon-close" viewBox="0 0 16 16">
    <path d="M16 .727L15.273 0 8 7.273.727 0 0 .727 7.273 8 0 15.273.727 16 8 8.727 15.273 16l.727-.727L8.727 8 16 .727z"/>
</symbol><symbol id="icon-facebook" viewBox="0 0 6 10">
    <path d="M3.602 3.495V2.292c0-.333.27-.602.602-.602h.601V.185H3.602c-.997 0-1.806.808-1.806 1.806v1.504H.593V5h1.203v4.815h1.806V5h1.203l.602-1.505H3.602z"/>
</symbol><symbol id="icon-house" viewBox="0 0 32 36">
    <path d="M21.98 7.853c0 .046.046.046 0 0l4.278 4.269-4.278-4.27z"/>
    <path d="M31.134 15.74l-4.094-4.082V7.574c0-.232-.23-.464-.46-.464h-4.048L16.322.846a.442.442 0 0 0-.644 0L.912 15.741a.423.423 0 0 0-.138.325v19.116c0 .232.23.465.46.465h29.532c.23 0 .46-.233.46-.465V16.066c.046-.14-.046-.232-.092-.325zM26.12 8.039v2.692l-2.668-2.692h2.668zm4.232 26.727H1.694V16.25L16 1.821l5.98 6.032 4.278 4.269 4.048 4.083v18.56h.046z"/>
    <path d="M9.698 22.005H5.466a.463.463 0 0 0-.46.464v6.403c0 .232.184.464.46.464h4.232c.23 0 .46-.232.46-.464V22.47a.463.463 0 0 0-.46-.464zm-.46 6.357H5.926v-5.43h3.312v5.43z"/>
</symbol><symbol id="icon-instagram" viewBox="0 0 9 10">
    <path d="M6.535.926H2.798c-1.216 0-2.205.99-2.205 2.206v3.737c0 1.216.989 2.205 2.205 2.205h3.737c1.216 0 2.206-.99 2.206-2.205V3.132c0-1.217-.99-2.206-2.206-2.206zM4.667 7.228A2.23 2.23 0 0 1 2.439 5c0-1.228 1-2.228 2.228-2.228 1.228 0 2.228 1 2.228 2.228 0 1.229-1 2.228-2.228 2.228zm2.28-3.93A.659.659 0 1 1 6.95 1.98a.659.659 0 0 1-.001 1.318z"/>
</symbol><symbol id="icon-keystep2" viewBox="0 0 48 48">
    <path d="M35.667 34.178a.75.75 0 0 0-.75.75V46.5H1.557V10.524h8.27a.75.75 0 0 0 .75-.75V1.5h24.34v18.768a.75.75 0 0 0 1.5 0V.75a.75.75 0 0 0-.75-.75H9.827A.749.749 0 0 0 9.3.222l-.717.716L.277 9.244a.735.735 0 0 0-.215.556V47.25a.75.75 0 0 0 .75.75h34.86a.75.75 0 0 0 .75-.75V34.928a.75.75 0 0 0-.755-.75zM2.661 9.024l6.416-6.455v6.455z"/>
    <path d="M28.074 14.033H9.827a.75.75 0 0 0 0 1.5h18.247a.75.75 0 0 0 0-1.5z"/>
    <path d="M28.074 17.933H9.827a.75.75 0 1 0 0 1.5h18.247a.75.75 0 1 0 0-1.5z"/>
    <path d="M28.074 21.833H9.827a.75.75 0 1 0 0 1.5h18.247a.75.75 0 0 0 0-1.5z"/>
    <path d="M28.824 26.483a.75.75 0 0 0-.75-.75H9.827a.75.75 0 0 0 0 1.5h18.247a.75.75 0 0 0 .75-.75z"/>
    <path d="M20.253 43.035h7.821a.75.75 0 0 0 0-1.5h-7.821a.75.75 0 0 0 0 1.5z"/>
    <path d="M47.4 20.029a1.97 1.97 0 0 0-.38-.282l.15-.154a2.731 2.731 0 0 0-.055-3.863 2.818 2.818 0 0 0-1.943-.772 2.718 2.718 0 0 0-1.92.828l-16.39 16.867a.651.651 0 0 0-.059.092.749.749 0 0 0-.067.082l-3.259 6.2a.75.75 0 0 0 .663 1.1.737.737 0 0 0 .368-.1l6.1-3.435a.747.747 0 0 0 .08-.069.685.685 0 0 0 .09-.062l14.91-15.343a.47.47 0 1 1 .673.655L43.13 25.1a.75.75 0 0 0 1.077 1.045l3.234-3.329a1.972 1.972 0 0 0-.041-2.787zm-8.94 2.841l.557.54a.75.75 0 0 0 1.045-1.076l-.556-.541 4.822-4.962a1.228 1.228 0 0 1 .865-.373 1.18 1.18 0 0 1 .877.349 1.23 1.23 0 0 1 .024 1.741l-15.867 16.33-1.767-1.718zM27.6 34.413l1.4 1.364-3.013 1.7z"/>
</symbol><symbol id="icon-keystep3" viewBox="0 0 70 86">
    <path d="M.8 0C.4.1 0 .5 0 1v70c0 .5.5 1 1 1h26.5c3.2 8.2 11.2 14 20.5 14 8.8 0 16.3-5.2 19.9-12.6.2-.5 0-1.1-.5-1.4s-1.1 0-1.3.5C62.9 79.3 56 84 48 84c-11.1 0-20-9-20-20s8.9-20 20-20 20 8.9 20 20c0 .5.5.9 1 .9s1-.4 1-.9c0-10.8-7.8-19.7-18-21.6V17c0-.3-.1-.5-.3-.7l-16-16c-.2-.2-.4-.3-.7-.3H.8zM2 2h32v15c0 .5.5 1 1 1h15v24.1c-.7-.1-1.3-.1-2-.1-12.1 0-22 9.9-22 22 0 2.1.3 4.1.8 6H2zm34 1.4L48.6 16H36zm11.9 48.5c-.5.1-.9.6-.9 1.1v2c-1.3.1-2.4.6-3.2 1.2-1.1 1-1.8 2.3-1.8 3.8 0 1 .4 1.9 1 2.6s1.3 1.1 2 1.5c1.4.7 2.8.9 2.8.9s1.1.2 2.2.7c.5.3 1.1.6 1.4 1s.5.8.5 1.3c0 .9-.3 1.6-1 2.1s-1.7.9-3 .9c-1.7 0-2.7-.6-3.3-1.2s-.8-1.1-.8-1.1c-.1-.5-.8-.9-1.3-.7s-.8.9-.6 1.4c0 0 .4 1 1.3 1.9.8.8 2 1.5 3.7 1.7v2c0 .5.5 1 1 1s1-.5 1-1v-2.1c1.3-.2 2.4-.6 3.2-1.3 1.1-.9 1.8-2.2 1.8-3.7 0-1-.4-2-1-2.6-.6-.7-1.3-1.1-2-1.5-1.4-.7-2.8-.9-2.8-.9s-1.1-.2-2.2-.7c-.5-.3-1.1-.6-1.4-1-.3-.3-.5-.7-.5-1.2 0-.9.3-1.6 1-2.1s1.7-.9 3-.9c1.7 0 2.7.6 3.3 1.2s.8 1.1.8 1.1c.1.5.8.9 1.3.7s.8-.9.6-1.4c0 0-.4-1-1.3-1.9-.8-.8-2-1.5-3.7-1.7v-2c0-.6-.6-1.1-1.1-1.1z"/>
</symbol><symbol id="icon-keystep4" viewBox="0 0 63 70">
    <circle cx="28.5" cy="64" r="1.6"/>
    <path d="M54.9 18.9H2c-1.1 0-2-.9-2-2V2C0 .9.9 0 2 0h52.9c1.1 0 2 .9 2 2v14.9c0 1.1-.9 2-2 2zM2 2v14.9h52.9V2z"/>
    <path d="M28.5 69.8c-3.3 0-6-2.7-6-6V44.3c0-1.1.9-2 2-2h8c1.1 0 2 .9 2 2v19.5c-.1 3.3-2.8 6-6 6zm4-25.5h-8v19.5c-.3 2.2 1.2 4.2 3.4 4.5s4.2-1.2 4.5-3.4c.1-.4.1-.8 0-1.1z"/>
    <path d="M29.5 42.5h-2v-13c0-.6.4-1 1-1h32.2V10.4h-4.8v-2h5.8c.6 0 1 .4 1 1v20.1c0 .6-.4 1-1 1H29.5z"/>
</symbol><symbol id="icon-keystep5" viewBox="0 0 45 49">
    <path d="M44.5 48h-7.7L35 44.4V6.5C35 2.9 32.1 0 28.5 0h-2C21.8 0 18 3.8 18 8.5V16h-1.5C7.4 16 0 23.4 0 32.5v12c0 .3.2.5.5.5h12c1 2.3 3.3 4 6 4 3.6 0 6.5-2.9 6.5-6.5 0-2.7-1.7-5-4-6v-20c0-.3-.2-.5-.5-.5H19V8.5C19 4.4 22.4 1 26.5 1h2c3 0 5.5 2.5 5.5 5.5V44h-3.5c-.3 0-.5.2-.5.5s.2.5.5.5h3.7l1.9 3.7c.1.2.3.3.4.3h8c.3 0 .5-.2.5-.5s-.2-.5-.5-.5zM24 42.5c0 3-2.5 5.5-5.5 5.5S13 45.5 13 42.5s2.5-5.5 5.5-5.5 5.5 2.5 5.5 5.5zm-4-6.3c-.5-.1-1-.2-1.5-.2-3.6 0-6.5 2.9-6.5 6.5 0 .5.1 1 .2 1.5H1v-5h3.5c.3 0 .5-.2.5-.5s-.2-.5-.5-.5H1v-5h3.5c.3 0 .5-.2.5-.5s-.2-.5-.5-.5H1c.1-4 1.7-7.7 4.5-10.5 2.9-2.9 6.8-4.5 11-4.5H20z"/>
</symbol><symbol id="icon-keystep6" viewBox="0 0 42 80">
    <path d="M20.8 0C9.3 0 0 9.3 0 20.8 0 32 8.9 41.1 20 41.5V79c0 .6.4 1 1 1s1-.4 1-1v-6h13c.6 0 1-.4 1-1s-.4-1-1-1H22v-6h9c.6 0 1-.4 1-1s-.4-1-1-1h-9V41.4c10.9-.7 19.5-9.7 19.5-20.7C41.5 9.3 32.2 0 20.8 0zm0 39.5C10.4 39.5 2 31.1 2 20.8S10.4 2 20.8 2s18.8 8.4 18.8 18.8-8.5 18.7-18.8 18.7z"/>
    <path d="M21 7.2c-4 0-7.2 3.3-7.2 7.2s3.3 7.2 7.2 7.2 7.2-3.3 7.2-7.2S25 7.2 21 7.2zm0 12.6c-2.9 0-5.2-2.4-5.2-5.2s2.4-5.2 5.2-5.2 5.2 2.4 5.2 5.2-2.3 5.2-5.2 5.2z"/>
</symbol><symbol id="icon-letter" viewBox="0 0 16 12">
    <path d="M8.02 7.067h.004c.12 0 .24-.035.336-.099l.026-.017.018-.01.304-.253L15.983.685a.085.085 0 0 0-.068-.035H.085a.082.082 0 0 0-.053.019l7.611 6.273c.096.08.233.125.377.125zM0 1.501v8.898l5.452-4.404L0 1.5zm10.553 4.524L16 10.4v-8.87l-5.447 4.494zM8.822 7.453a1.26 1.26 0 0 1-.8.276c-.299 0-.583-.097-.8-.274l-1.248-1.03L0 11.25v.015c0 .046.04.085.086.085h15.83a.086.086 0 0 0 .084-.085v-.014l-5.969-4.796-1.21.998z"/>
</symbol><symbol id="icon-logo-sm" viewBox="0 0 357 357">
    <path d="M326.1 78c-26.9-39.4-67.5-66-114.4-74.8-46.8-8.9-94.3 1-133.7 27.9C38.6 58 12 98.6 3.1 145.5c-18.3 96.7 45.5 190.3 142.3 208.6 11.2 2.1 22.4 3.2 33.5 3.2 35.5 0 70.2-10.6 100.2-31.1 39.4-26.9 66-67.5 74.8-114.4 9-46.9-.9-94.4-27.8-133.8zm-29.4-18.3l-84.3 109.4 3.7-153.8c30.8 7.1 58.5 22.4 80.6 44.4zM84.2 40.2C112.3 21 144.9 11 178.2 11c7.9 0 15.8.6 23.8 1.7l-99.5 174.4L14 147.4c8.3-43.9 33.2-82 70.2-107.2zM12.3 158.7l88.1 39.5 48.1 145.2c-.3-.1-.7-.1-1-.2C60.4 326.8 1.8 245.4 12.3 158.7zm148.4 186.5l-49.9-150.4 93.9-164.5-7.5 314.9c-12 1.3-24.3 1.3-36.5 0zM273 317c-19.8 13.5-41.8 22.4-64.7 26.5l3.6-149.2 119 54.4c-12.6 27.4-32.4 50.9-57.9 68.3zm70.2-107.3c-1.9 9.9-4.6 19.5-8.2 28.8l-120-54.8 89.2-115.8c4.5 5.1 8.8 10.6 12.7 16.3 25.3 37 34.6 81.6 26.3 125.5z"/>
</symbol><symbol id="icon-logo" viewBox="0 0 930 357">
    <path d="M326.1 78c-26.9-39.4-67.5-66-114.4-74.8-46.8-8.9-94.3 1-133.7 27.9C38.6 58 12 98.6 3.1 145.5c-18.3 96.7 45.5 190.3 142.3 208.6 11.2 2.1 22.4 3.2 33.5 3.2 35.5 0 70.2-10.6 100.2-31.1 39.4-26.9 66-67.5 74.8-114.4 9-46.9-.9-94.4-27.8-133.8zm-29.4-18.3l-84.3 109.4 3.7-153.8c30.8 7.1 58.5 22.4 80.6 44.4zM84.2 40.2C112.3 21 144.9 11 178.2 11c7.9 0 15.8.6 23.8 1.7l-99.5 174.4L14 147.4c8.3-43.9 33.2-82 70.2-107.2zM12.3 158.7l88.1 39.5 48.1 145.2c-.3-.1-.7-.1-1-.2C60.4 326.8 1.8 245.4 12.3 158.7zm148.4 186.5l-49.9-150.4 93.9-164.5-7.5 314.9c-12 1.3-24.3 1.3-36.5 0zM273 317c-19.8 13.5-41.8 22.4-64.7 26.5l3.6-149.2 119 54.4c-12.6 27.4-32.4 50.9-57.9 68.3zm70.2-107.3c-1.9 9.9-4.6 19.5-8.2 28.8l-120-54.8 89.2-115.8c4.5 5.1 8.8 10.6 12.7 16.3 25.3 37 34.6 81.6 26.3 125.5z"/>
    <path d="M489.9 142.6L458 86.8h-16.1L483 158v53.9h13.8V158l41.5-71.2h-16.1z"/>
    <path d="M645.1 163.5c0 10.5 0 21.9-9.9 30.4-5.1 4.3-13.7 7.1-20.6 7.1-6.9 0-15.6-2.8-20.6-7.1-9.9-8.4-9.9-19.9-9.9-30.4V86.8h-13.9v80.5c0 10.5 1.1 20.6 7.9 30 7.5 10.3 20.6 16.9 36.6 16.9 15.9 0 29.1-6.6 36.6-16.9 6.8-9.4 7.9-19.5 7.9-30V86.8h-13.9v76.7z"/>
    <path d="M784.2 86.8h-18.7l-53.3 53.6V86.8h-13.9v125.1h13.9V158l3.6-3.5 51.2 57.4h19.1l-60.4-66.8z"/>
    <path d="M862.8 84.7c-37.2 0-67.2 28.3-67.2 66.8 0 38.3 29.8 66.8 67.2 66.8 37.4 0 67.2-28.5 67.2-66.8 0-38.5-30-66.8-67.2-66.8zm0 120c-29 0-52.5-23.6-52.5-53.2s23.4-53.2 52.5-53.2c29 0 52.5 23.6 52.5 53.2s-23.4 53.2-52.5 53.2z"/>
    <g>
        <path d="M452.2 243.8h3.1v27.6h-3.1z"/>
        <path d="M485.3 265.1l-21.5-22.5v28.7h3.1V250l21.4 22.6v-28.8h-3z"/>
        <path d="M493.9 246.6h6.7v24.7h3.1v-24.7h6.7v-2.8h-16.5z"/>
        <path d="M516 271.3h14.3v-2.9H519v-10.7h10.9v-2.9H519v-8.2h11.3v-2.8H516z"/>
        <path d="M551.5 251.4c0-2.9-1.4-5-3-6.1-2.1-1.4-4.8-1.5-6.7-1.5h-4.4v27.6h3.1v-12.1h.8l8.4 12.1h3.7l-8.8-12.3c4.1-.4 6.9-3.5 6.9-7.7zm-11.1 5.1v-9.9h1.9c1.3 0 2.7.1 4 .8 1.7 1 2.2 2.5 2.2 4 0 3.2-2.3 5-6.1 5h-2z"/>
        <path d="M559.6 243.8h3.1v27.6h-3.1z"/>
        <path d="M582.6 243.3c-7.9 0-14.3 6-14.3 14.3 0 8.2 6.4 14.3 14.3 14.3 8 0 14.3-6.1 14.3-14.3 0-8.3-6.4-14.3-14.3-14.3zm0 25.6c-6.2 0-11.2-5-11.2-11.4 0-6.3 5-11.4 11.2-11.4 6.2 0 11.2 5 11.2 11.4s-5 11.4-11.2 11.4z"/>
        <path d="M616.7 251.4c0-2.9-1.4-5-3-6.1-2.1-1.4-4.8-1.5-6.7-1.5h-4.4v27.6h3.1v-12.1h.8l8.4 12.1h3.7l-8.8-12.3c4.1-.4 6.9-3.5 6.9-7.7zm-11.1 5.1v-9.9h1.9c1.3 0 2.7.1 4 .8 1.7 1 2.2 2.5 2.2 4 0 3.2-2.3 5-6.1 5h-2z"/>
        <path d="M650.2 247c-3.5-2.9-7.4-3.2-10.2-3.2h-5.6v27.6h5.6c4.9 0 7.6-1 10.1-3.2 2-1.7 4.8-4.8 4.8-10.6 0-5-2.2-8.5-4.7-10.6zm-2.2 18.9c-2.7 2.2-5.7 2.5-7.9 2.5h-2.7v-21.8h2.7c7 0 11.6 4.3 11.6 10.9.1 4-1.6 6.7-3.7 8.4z"/>
        <path d="M660.5 271.3h14.3v-2.9h-11.2v-10.7h10.9v-2.9h-10.9v-8.2h11.2v-2.8h-14.3z"/>
        <path d="M692.9 255.7l-2.6-1.2c-1-.5-2.1-.9-2.9-1.7-.7-.7-1-1.3-1-2.4 0-2.6 1.9-4.3 4.6-4.3 1.6 0 2.6.5 3.1.9.6.5 1.2 1.3 1.6 2.1l2.4-1.6c-.6-1.2-1.6-2.3-2.7-3.1-1.4-.9-2.7-1.2-4.4-1.2-4.5 0-7.7 2.8-7.7 7.1 0 2.1.7 3.3 1.9 4.5 1.2 1.2 2.6 1.8 3.7 2.3l2.5 1.2c1.4.7 2.5 1.2 3.3 1.9 1 .9 1.4 2 1.4 3.2 0 2.8-1.8 5.5-5.5 5.5-1.4 0-2.8-.3-4-1.5-.8-.8-1.4-2.1-1.7-3.5l-3 .8c.4 1.7 1.2 3.6 2.6 4.9 1.9 1.9 4.2 2.2 6 2.2 5 0 8.7-3.4 8.7-8.5 0-2-.6-3.6-2-5-1.2-1.1-2.7-1.9-4.3-2.6z"/>
        <path d="M706.2 243.8h3.1v27.6h-3.1z"/>
        <path d="M732.1 260.4h8.2c-.1 1.7-.6 3.1-1.1 3.9-1.6 2.8-4.8 4.6-8.4 4.6-5.2 0-11.2-3.8-11.2-11.3 0-6.4 4.6-11.4 11.3-11.4 3.3 0 5.4 1.2 6.7 2.3.9.7 1.8 1.7 2.6 2.8l2.3-2.1c-.8-1.1-1.9-2.3-3.2-3.3-2.7-2.1-5.8-2.7-8.4-2.7-8.2 0-14.4 6.2-14.4 14.3 0 8 6.1 14.3 14.3 14.3 6.3 0 9.4-3.8 10.2-5 1.7-2.4 2.6-5.7 2.6-8.7v-.7h-11.5v3z"/>
        <path d="M770.7 265.1l-21.5-22.5v28.7h3V250l21.5 22.6v-28.8h-3z"/>
        <path d="M801.5 255.7l-2.6-1.2c-1-.5-2.1-.9-2.9-1.7-.7-.7-1-1.3-1-2.4 0-2.6 1.9-4.3 4.6-4.3 1.6 0 2.6.5 3.1.9.6.5 1.2 1.3 1.6 2.1l2.4-1.6c-.6-1.2-1.6-2.3-2.7-3.1-1.4-.9-2.7-1.2-4.4-1.2-4.5 0-7.7 2.8-7.7 7.1 0 2.1.7 3.3 1.9 4.5 1.2 1.2 2.6 1.8 3.7 2.3l2.5 1.2c1.4.7 2.5 1.2 3.3 1.9 1 .9 1.4 2 1.4 3.2 0 2.8-1.8 5.5-5.5 5.5-1.4 0-2.8-.3-4-1.5-.8-.8-1.4-2.1-1.7-3.5l-3 .8c.4 1.7 1.2 3.6 2.6 4.9 1.9 1.9 4.2 2.2 6 2.2 5 0 8.7-3.4 8.7-8.5 0-2-.6-3.6-2-5-1.2-1.1-2.7-1.9-4.3-2.6z"/>
        <path d="M811.6 246.6h6.6v24.7h3.1v-24.7h6.7v-2.8h-16.4z"/>
        <path d="M850.1 260.7c0 2.3 0 4.8-2.2 6.7-1.1.9-3 1.6-4.5 1.6s-3.4-.6-4.5-1.6c-2.2-1.9-2.2-4.4-2.2-6.7v-16.9h-3.1v17.7c0 2.3.2 4.5 1.7 6.6 1.7 2.3 4.5 3.7 8.1 3.7 3.5 0 6.4-1.4 8.1-3.7 1.5-2.1 1.7-4.3 1.7-6.6v-17.7h-3.1v16.9z"/>
        <path d="M874.6 247c-3.5-2.9-7.4-3.2-10.2-3.2h-5.6v27.6h5.6c4.9 0 7.6-1 10.1-3.2 2-1.7 4.8-4.8 4.8-10.6 0-5-2.1-8.5-4.7-10.6zm-2.1 18.9c-2.7 2.2-5.7 2.5-7.9 2.5h-2.7v-21.8h2.7c7 0 11.6 4.3 11.6 10.9 0 4-1.7 6.7-3.7 8.4z"/>
        <path d="M885 243.8h3.1v27.6H885z"/>
        <path d="M908 243.3c-7.9 0-14.3 6-14.3 14.3 0 8.2 6.4 14.3 14.3 14.3 8 0 14.3-6.1 14.3-14.3 0-8.3-6.4-14.3-14.3-14.3zm0 25.6c-6.2 0-11.2-5-11.2-11.4 0-6.3 5-11.4 11.2-11.4 6.2 0 11.2 5 11.2 11.4s-5 11.4-11.2 11.4z"/>
    </g>
</symbol><symbol id="icon-phone" viewBox="0 0 11 11">
    <path d="M2.2 4.767c.856 1.71 2.322 3.116 4.033 4.033l1.345-1.344c.183-.184.428-.245.61-.123a6.392 6.392 0 0 0 2.2.367c.368 0 .612.244.612.611v2.078c0 .367-.244.611-.611.611A10.38 10.38 0 0 1 0 .611C0 .244.244 0 .611 0H2.75c.367 0 .611.244.611.611 0 .733.122 1.467.367 2.2.06.183 0 .428-.122.611L2.2 4.767z"/>
</symbol><symbol id="icon-pin" viewBox="0 0 14 15">
    <g clip-path="url(#a)">
        <path d="M11.594 3.55c-.05-.19-.15-.394-.226-.571C10.473.786 8.515 0 6.935 0 4.819 0 2.489 1.445 2.178 4.424v.608c0 .026.008.254.02.368.175 1.42 1.275 2.928 2.096 4.348.884 1.521 1.8 3.017 2.709 4.513.56-.976 1.118-1.965 1.665-2.916.15-.279.323-.558.472-.824.1-.177.29-.355.377-.52.883-1.647 2.305-3.308 2.305-4.943v-.672c0-.177-.215-.798-.228-.837zm-4.62 3.054c-.622 0-1.303-.316-1.64-1.191-.05-.14-.045-.419-.045-.444v-.393c0-1.115.93-1.622 1.738-1.622.996 0 1.766.811 1.766 1.825a1.824 1.824 0 0 1-1.82 1.825z"/>
    </g>
    
</symbol><symbol id="icon-pinterest" viewBox="0 0 8 10">
    <path d="M3.015 6.805c-.234 1.224-.519 2.397-1.363 3.01-.261-1.85.382-3.24.681-4.714-.51-.857.061-2.583 1.136-2.158 1.322.523-1.145 3.188.511 3.521 1.73.348 2.435-3 1.363-4.089C3.793.803.833 2.34 1.197 4.59c.089.55.657.717.228 1.477C.433 5.847.137 5.065.175 4.022.237 2.316 1.71 1.121 3.185.956c1.867-.21 3.62.685 3.862 2.442.272 1.982-.843 4.13-2.84 3.975-.541-.042-.768-.31-1.192-.568z"/>
</symbol><symbol id="icon-step1" viewBox="0 0 30 37">
    <path d="M12.144.003a3.378 3.378 0 0 0-1.887.712c-1.26.974-1.6 2.648-1 4.05H6.244a.4.4 0 0 0-.4.4v1.4H.594a.4.4 0 0 0-.087 0 .413.413 0 0 0-.313.4v29.038c0 .21.191.4.4.4h23.5c.21 0 .4-.19.4-.4v-7.037a.41.41 0 0 0-.4-.4.41.41 0 0 0-.4.4v6.637H.994V7.365h4.85v1.65a.4.4 0 0 0 .4.4h12.2a.4.4 0 0 0 .4-.4v-1.65h4.85v6.676c-.002.211.19.4.4.4a.41.41 0 0 0 .4-.4V6.965c0-.209-.19-.4-.4-.4h-5.25v-1.4a.4.4 0 0 0-.4-.4h-2.987c.463-1.082.38-2.355-.363-3.362l-.012-.025a.383.383 0 0 0-.025-.037.387.387 0 0 0-.013-.025C14.434.536 13.534.13 12.62.053a.518.518 0 0 0-.012-.012h-.013a.402.402 0 0 0-.037-.013.4.4 0 0 0-.125-.025 3.446 3.446 0 0 0-.287 0zm.238.8a2.628 2.628 0 0 1 2 .962c.004.005.009.008.012.013a.343.343 0 0 0 .013.025.387.387 0 0 0 .012.025c.723.936.719 2.195.075 3.112a.4.4 0 0 0 .325.625h3.225v3.05h-11.4v-3.05H9.87a.4.4 0 0 0 .325-.625 2.625 2.625 0 0 1 .55-3.587 2.591 2.591 0 0 1 1.638-.55zm-.175 1.338c-.253.016-.51.108-.725.275a1.317 1.317 0 0 0-.238 1.85 1.316 1.316 0 0 0 1.85.237 1.319 1.319 0 0 0 .25-1.85l-.012-.012a1.31 1.31 0 0 0-1.125-.5zm-8.85 10.95v1h16.55v-1zm20.1 2.125a6.253 6.253 0 0 0-3.8 1.312c-2.753 2.127-3.275 6.096-1.15 8.85a6.315 6.315 0 0 0 8.85 1.137 6.304 6.304 0 0 0 1.175-8.787.404.404 0 0 0-.038-.063.416.416 0 0 0-.025-.037 6.3 6.3 0 0 0-5.012-2.413zm-.313.812a5.507 5.507 0 0 1 4.688 2.075c.007.009.006.016.012.025v.012a.387.387 0 0 0 .025.013 5.503 5.503 0 0 1-1 7.724 5.499 5.499 0 0 1-7.724-.987 5.504 5.504 0 0 1 1-7.725 5.492 5.492 0 0 1 3-1.138zm-19.787 2.7v1.012h13.175v-1.012zm24 .038a.404.404 0 0 0-.063.012.4.4 0 0 0-.162.075l-6.163 4.438-.987-1.775a.4.4 0 1 0-.7.387l1.212 2.175a.399.399 0 0 0 .588.125l6.512-4.7a.4.4 0 0 0-.237-.737zm-24 5.612v1h13.175v-1zm0 5.638v1.012h16.55v-1.012z"/>
</symbol><symbol id="icon-step2" viewBox="0 0 37 37">
    <path d="M31.463 10.908a.5.5 0 1 1 1 0v13.92a.5.5 0 0 1-.5.5H10.84a.5.5 0 0 1-.5-.5v-13.92a.5.5 0 0 1 1 0v13.42h20.123z"/>
    <path d="M21.402 3.239l-13 9.916a.5.5 0 1 1-.607-.795L21.1 2.212a.5.5 0 0 1 .606 0L35.008 12.36a.5.5 0 0 1-.606.795z"/>
    <path d="M35.606 33.427a.5.5 0 1 1 0 1H6.663a.5.5 0 1 1 0-1z"/>
    <path d="M7.369 33.927l1.718 1.726a.5.5 0 0 1-.708.706l-2.07-2.08a.5.5 0 0 1 0-.705l2.07-2.08a.5.5 0 1 1 .708.706z"/>
    <path d="M33.174 32.201a.5.5 0 0 1 .707-.707l2.08 2.08a.5.5 0 0 1 0 .706l-2.08 2.08a.5.5 0 0 1-.707-.708l1.725-1.725z"/>
    <path d="M3.621 29.943a.5.5 0 1 1-1 0V1a.5.5 0 1 1 1 0z"/>
    <path d="M3.121 1.706L1.395 3.424a.5.5 0 0 1-.706-.708L2.77.646a.5.5 0 0 1 .705 0l2.08 2.07a.5.5 0 0 1-.706.708z"/>
    <path d="M4.847 27.51a.5.5 0 0 1 .707.708l-2.08 2.079a.5.5 0 0 1-.706 0l-2.08-2.08a.5.5 0 0 1 .708-.707l1.725 1.726z"/>
</symbol><symbol id="icon-step3" viewBox="0 0 40 43">
    <path d="M39.647 30.816l-.137-19.235-.176-.337L19.995 0h-.354L.286 11.245l-.177.325.127 19.243.115.226L19.73 42.24h.354L39.52 31.049zm-7.452-4.542l-5.905-3.416.224-13.911 5.903 3.427zm6.751 3.906l-6.284-3.635.23-14.322-.118-.208-6.371-3.688-.355.201-.311 14.06L20 19.317V.988l18.717 10.802zM19.56.987v18.418l-6.438 3.725L.963 30.172.88 11.788zm.348 40.634L1.288 30.822l1.668-.972 16.906-9.806 17.178 9.884 1.541.891z"/>
    <path d="M7.572 20.505l7.056-4.16.092-.204V9.003l-.343-.203-7.05 4.16-.087.203v7.138zm.108-7.206l6.6-3.883v6.59l-6.6 3.883z"/>
</symbol><symbol id="icon-step4" viewBox="0 0 42 31">
    <path d="M39.066 5.17h-18.6a2.847 2.847 0 0 0-2.85 2.838 2.847 2.847 0 0 0 2.85 2.837h8.85v16.089l-8.074 2.296.247.862 8.277-2.354 8.276 2.354.248-.862-8.074-2.296V10.845h8.85a2.847 2.847 0 0 0 2.85-2.837 2.848 2.848 0 0 0-2.85-2.838zm0 4.78h-18.6c-1.076 0-1.95-.872-1.95-1.942 0-1.07.874-1.942 1.95-1.942h18.6c1.075 0 1.95.871 1.95 1.942 0 1.07-.875 1.941-1.95 1.941z"/>
    <path d="M3.848 13.879L.88 0 0 .187 3.029 14.35 1.377 29.613l.894.097.67-6.195h12.654l.446 6.178.898-.064-1.137-15.75zm-.81 8.74l.85-7.845h11.076l.566 7.845z"/>
</symbol><symbol id="icon-step5" viewBox="0 0 37 42">
    <path d="M18.328 0L.2 10.508 0 10.622v20.606L18.328 41.85l18.129-10.508.2-.114V10.622zm-.398 1.155v5.943L3.586 15.411l3.586 2.078v9.12L.797 30.305v-19.22zm.797 0l17.132 9.93v19.218l-6.375-3.695v-9.119l3.586-2.078-14.343-8.314zM17.93 8.02v1.458l-5.57 3.228-4.978 1.428zm.797 0l10.547 6.116-4.979-1.43-5.568-3.228zm-.399 2.152l5.015 2.906-5.015 2.906-5.015-2.907zm-5.864 3.336l5.466 3.169v6.125L5.396 15.536zm11.729 0l7.067 2.028-12.533 7.266v-6.125zM7.969 17.95l9.96 5.773v8.697l-3.076-1.783v-5.88l.797.462v-.922l-5.49-3.183v.923l.797.463v5.88l-2.988-1.733zm20.719.002v8.695l-9.961 5.773v-8.697zm-.663 2.243l-3.123 1.81v3.562l3.123-1.81zm-18.453.578l-.005.007h.017zm17.656.808v1.716l-1.529.884v-1.714zm-3.852 1.27l-3.121 1.81v3.562l3.12-1.809zm-11.622.112l2.302 1.334v5.878l-2.302-1.334zm10.825 1.275v1.714l-1.527.885v-1.715zM7.536 27.32l10.394 6.024v7.351l-16.735-9.7zm21.584 0l6.34 3.675-16.733 9.7v-7.351z"/>
</symbol><symbol id="icon-step6" viewBox="0 0 44 30">
    <path d="M4.7 25.7H35c2 0 3.6-1.6 3.6-3.6v-16c0-2-1.6-3.6-3.6-3.6-1.9 0-3.4 1.4-3.6 3.2H4.7c-.2 0-.4.2-.4.4v19.2c0 .2.2.4.4.4zM35 3.3c1.6 0 2.9 1.3 2.9 2.8v13.8c-.7-.8-1.7-1.4-2.9-1.4s-2.2.5-2.9 1.4V6.1c0-1.6 1.3-2.8 2.9-2.8zM5.1 6.5h26.2v15.6c0 .2.2.4.4.4s.4-.2.4-.4c0-1.6 1.3-2.8 2.9-2.8s2.9 1.3 2.9 2.8-1.3 2.8-2.9 2.8H5.1z"/>
    <path d="M26.6 11.8h-5.1c-.2 0-.4.2-.4.4v4.7c0 .2.2.4.4.4h4.7v2.9H23c-.2 0-.4.2-.4.4v1.6h-5.3v-5H19c.2 0 .4-.2.4-.4v-3.6c0-.2-.2-.4-.4-.4h-1.7V9.5c0-.2-.2-.4-.4-.4H9.2c-.2 0-.4.2-.4.4v9.4c0 .2.2.4.4.4h1.7v3.2c0 .2.2.4.4.4H23c.2 0 .4-.2.4-.4v-1.6h3.2c.2 0 .4-.2.4-.4v-8.4c0-.2-.2-.3-.4-.3zM9.5 18.5V9.9h7v3.3c0 .2.2.4.4.4h1.7v2.8h-1.7c-.2 0-.4.2-.4.4v5.3h-5v-3.2c0-.2-.2-.4-.4-.4zm12.4-6h4.3v3.9h-4.3z"/>
</symbol></svg>